<mxfile host="app.diagrams.net" modified="2024-06-11T16:19:56.010Z" agent="Mozilla/5.0 (Windows NT 10.0; Win64; x64) AppleWebKit/537.36 (KHTML, like Gecko) Chrome/125.0.0.0 Safari/537.36" etag="81omEvag895mbX7_yW78" version="24.5.3" type="device">
  <diagram name="Page-1" id="2YBvvXClWsGukQMizWep">
    <mxGraphModel dx="2814" dy="1658" grid="1" gridSize="10" guides="1" tooltips="1" connect="1" arrows="1" fold="1" page="1" pageScale="1" pageWidth="850" pageHeight="1100" math="0" shadow="0">
      <root>
        <mxCell id="0" />
        <mxCell id="1" parent="0" />
        <mxCell id="8WOhdFGJpGClGAThh-gr-1" value="Cliente&lt;span style=&quot;white-space: pre;&quot;&gt;&#x9;&lt;/span&gt;" style="text;html=1;align=center;verticalAlign=middle;resizable=0;points=[];autosize=1;strokeColor=none;fillColor=none;labelBackgroundColor=none;" parent="1" vertex="1">
          <mxGeometry x="-1650" y="-990" width="80" height="30" as="geometry" />
        </mxCell>
        <mxCell id="Xush0R4FDbhnRSaMg2tl-23" style="edgeStyle=orthogonalEdgeStyle;rounded=0;orthogonalLoop=1;jettySize=auto;html=1;exitX=0.5;exitY=1;exitDx=0;exitDy=0;labelBackgroundColor=none;fontColor=default;" parent="1" edge="1">
          <mxGeometry relative="1" as="geometry">
            <mxPoint x="-1540" y="490" as="sourcePoint" />
            <mxPoint x="-1540" y="490" as="targetPoint" />
          </mxGeometry>
        </mxCell>
        <mxCell id="diKH7t9uhdvl2OTYyAan-1" value="" style="shape=umlLifeline;perimeter=lifelinePerimeter;whiteSpace=wrap;html=1;container=1;dropTarget=0;collapsible=0;recursiveResize=0;outlineConnect=0;portConstraint=eastwest;newEdgeStyle={&quot;curved&quot;:0,&quot;rounded&quot;:0};participant=umlActor;" parent="1" vertex="1">
          <mxGeometry x="-1620" y="-960" width="25" height="320" as="geometry" />
        </mxCell>
        <mxCell id="diKH7t9uhdvl2OTYyAan-2" value="Shoppingcart" style="shape=umlLifeline;perimeter=lifelinePerimeter;whiteSpace=wrap;html=1;container=1;dropTarget=0;collapsible=0;recursiveResize=0;outlineConnect=0;portConstraint=eastwest;newEdgeStyle={&quot;curved&quot;:0,&quot;rounded&quot;:0};" parent="1" vertex="1">
          <mxGeometry x="-1370" y="-960" width="100" height="320" as="geometry" />
        </mxCell>
        <mxCell id="iF50leZwEsXzKOGwHqzd-2" value="" style="html=1;points=[[0,0,0,0,5],[0,1,0,0,-5],[1,0,0,0,5],[1,1,0,0,-5]];perimeter=orthogonalPerimeter;outlineConnect=0;targetShapes=umlLifeline;portConstraint=eastwest;newEdgeStyle={&quot;curved&quot;:0,&quot;rounded&quot;:0};" parent="diKH7t9uhdvl2OTYyAan-2" vertex="1">
          <mxGeometry x="35" y="58" width="30" height="70" as="geometry" />
        </mxCell>
        <mxCell id="iF50leZwEsXzKOGwHqzd-4" style="edgeStyle=orthogonalEdgeStyle;rounded=0;orthogonalLoop=1;jettySize=auto;html=1;dashed=1;" parent="1" source="8WOhdFGJpGClGAThh-gr-6" target="iF50leZwEsXzKOGwHqzd-2" edge="1">
          <mxGeometry relative="1" as="geometry" />
        </mxCell>
        <mxCell id="8WOhdFGJpGClGAThh-gr-6" value="buy x quantity&amp;nbsp;" style="whiteSpace=wrap;html=1;labelBackgroundColor=none;" parent="1" vertex="1">
          <mxGeometry x="-1670" y="-887" width="120" height="40" as="geometry" />
        </mxCell>
        <mxCell id="JztDeCdSi2IZqchYeAO5-1" value="modify_current_stock():&amp;nbsp;" style="text;strokeColor=none;fillColor=none;align=left;verticalAlign=top;spacingLeft=4;spacingRight=4;overflow=hidden;rotatable=0;points=[[0,0.5],[1,0.5]];portConstraint=eastwest;whiteSpace=wrap;html=1;" parent="1" vertex="1">
          <mxGeometry x="-1515" y="-890" width="135" height="26" as="geometry" />
        </mxCell>
        <mxCell id="JztDeCdSi2IZqchYeAO5-2" value="Product" style="shape=umlLifeline;perimeter=lifelinePerimeter;whiteSpace=wrap;html=1;container=1;dropTarget=0;collapsible=0;recursiveResize=0;outlineConnect=0;portConstraint=eastwest;newEdgeStyle={&quot;curved&quot;:0,&quot;rounded&quot;:0};" parent="1" vertex="1">
          <mxGeometry x="-1170" y="-960" width="100" height="320" as="geometry" />
        </mxCell>
        <mxCell id="JztDeCdSi2IZqchYeAO5-4" value="" style="html=1;points=[[0,0,0,0,5],[0,1,0,0,-5],[1,0,0,0,5],[1,1,0,0,-5]];perimeter=orthogonalPerimeter;outlineConnect=0;targetShapes=umlLifeline;portConstraint=eastwest;newEdgeStyle={&quot;curved&quot;:0,&quot;rounded&quot;:0};" parent="JztDeCdSi2IZqchYeAO5-2" vertex="1">
          <mxGeometry x="35" y="58" width="30" height="70" as="geometry" />
        </mxCell>
        <mxCell id="JztDeCdSi2IZqchYeAO5-5" style="edgeStyle=orthogonalEdgeStyle;rounded=0;orthogonalLoop=1;jettySize=auto;html=1;dashed=1;" parent="1" source="iF50leZwEsXzKOGwHqzd-2" target="JztDeCdSi2IZqchYeAO5-4" edge="1">
          <mxGeometry relative="1" as="geometry">
            <mxPoint x="-1260" y="-820" as="sourcePoint" />
            <mxPoint x="-1045" y="-820" as="targetPoint" />
          </mxGeometry>
        </mxCell>
        <mxCell id="JztDeCdSi2IZqchYeAO5-6" value="modify_current_stock():&amp;nbsp;" style="text;strokeColor=none;fillColor=none;align=left;verticalAlign=top;spacingLeft=4;spacingRight=4;overflow=hidden;rotatable=0;points=[[0,0.5],[1,0.5]];portConstraint=eastwest;whiteSpace=wrap;html=1;" parent="1" vertex="1">
          <mxGeometry x="-1290" y="-890" width="135" height="26" as="geometry" />
        </mxCell>
      </root>
    </mxGraphModel>
  </diagram>
</mxfile>
